Coordinates
version=1
nRows=32
nColumns=22
inDegrees=yes

Units are S.I. units (second, meters, Newtons, ...)
If the header above contains a line with 'inDegrees', this indicates whether rotational values are in degrees (yes) or radians (no).

endheader
time	pelvis_tilt	pelvis_list	pelvis_rotation	pelvis_tx	pelvis_ty	pelvis_tz	hip_flexion_r	hip_adduction_r	hip_rotation_r	knee_angle_r	ankle_angle_r	subtalar_angle_r	hip_flexion_l	hip_adduction_l	hip_rotation_l	knee_angle_l	ankle_angle_l	subtalar_angle_l	lumbar_extension	lumbar_bending	lumbar_rotation
      3.74000000	     -4.47001867	    -10.11447059	     48.18597251	      0.83016830	      0.97235015	      0.32508202	     30.37205885	      6.72782201	      0.40464036	    -26.87056623	     11.19720236	     -3.90091896	     23.68308102	     -3.68634568	     -4.07761509	    -62.82060508	      9.49869325	      7.45767830	      2.61129292	      7.24407150	      4.01212299
      3.75000000	     -4.41506703	    -10.07690701	     48.28941440	      0.83399940	      0.97301200	      0.32235031	     29.94863259	      6.81246558	      0.42675049	    -26.76492697	     11.41608899	     -4.13192432	     24.04944986	     -3.97838591	     -4.58452074	    -62.38151786	     10.48510142	      7.09553078	      2.52304017	      7.22617868	      4.24774831
      3.76000000	     -4.35329814	    -10.05889608	     48.40138287	      0.83773746	      0.97360014	      0.31961537	     29.55478619	      6.90579918	      0.42837961	    -26.68730342	     11.65082390	     -4.29872545	     24.38237128	     -4.25738584	     -5.02647409	    -61.80992090	     11.42204462	      6.79630861	      2.46343038	      7.23209422	      4.44134164
      3.77000000	     -4.26122267	    -10.01296935	     48.56648835	      0.84132106	      0.97422554	      0.31680730	     29.11106385	      6.97392551	      0.38687691	    -26.58948587	     11.89355037	     -4.49714951	     24.62719284	     -4.47925769	     -5.35474887	    -61.10280199	     12.33405006	      6.37773786	      2.37067945	      7.24065730	      4.58582431
      3.78000000	     -4.16578915	     -9.97556298	     48.76106457	      0.84478914	      0.97479275	      0.31397464	     28.68708328	      7.03256992	      0.31084221	    -26.51198263	     12.14947064	     -4.66409764	     24.83786763	     -4.67099591	     -5.60332343	    -60.28825578	     13.21404085	      5.96531081	      2.29989935	      7.25840475	      4.66920357
      3.79000000	     -4.05868097	     -9.93684533	     48.98594060	      0.84814059	      0.97532723	      0.31111915	     28.26543307	      7.08403878	      0.20869135	    -26.44590774	     12.40749357	     -4.81888357	     25.00255540	     -4.83354953	     -5.77425909	    -59.38029493	     14.06482959	      5.53339859	      2.23341300	      7.28394576	      4.70710246
      3.80000000	     -3.94364158	     -9.89527236	     49.23796268	      0.85137620	      0.97582607	      0.30823810	     27.84808868	      7.12775428	      0.09038945	    -26.39320827	     12.65943009	     -4.97661694	     25.12447574	     -4.96914221	     -5.88017953	    -58.39494230	     14.89488303	      5.07573742	      2.17280949	      7.31554674	      4.70347702
      3.81000000	     -3.82305004	     -9.85388179	     49.51060488	      0.85450537	      0.97628030	      0.30536475	     27.44236194	      7.16754898	     -0.04717107	    -26.35707359	     12.90922722	     -5.14103004	     25.21224649	     -5.08400119	     -5.92700125	    -57.34964576	     15.70267563	      4.61311958	      2.11776880	      7.34897330	      4.67430715
      3.82000000	     -3.70394937	     -9.80858408	     49.79282825	      0.85753402	      0.97669244	      0.30251160	     27.04809299	      7.20425217	     -0.17533207	    -26.33475948	     13.14062198	     -5.32582077	     25.26624399	     -5.17614759	     -5.93205106	    -56.25535750	     16.48738664	      4.11969533	      2.06652663	      7.37715042	      4.61670399
      3.83000000	     -3.59182746	     -9.76428771	     50.08026046	      0.86046117	      0.97704524	      0.29968954	     26.67630226	      7.23642911	     -0.29860014	    -26.33266253	     13.36523756	     -5.52570316	     25.29963087	     -5.24971099	     -5.90433701	    -55.12944516	     17.25031189	      3.61127016	      2.02699381	      7.39936269	      4.55173161
      3.84000000	     -3.49102995	     -9.72133597	     50.36231952	      0.86329361	      0.97733362	      0.29692805	     26.33193024	      7.26599804	     -0.41082875	    -26.35151106	     13.58610134	     -5.73744548	     25.31880747	     -5.30569002	     -5.85214153	    -53.98602441	     17.98347034	      3.07726096	      1.99625968	      7.41009538	      4.48953354
      3.85000000	     -3.40268247	     -9.67677976	     50.63207183	      0.86604729	      0.97756443	      0.29422758	     26.01414197	      7.28860800	     -0.52134813	    -26.39636879	     13.81315153	     -5.96129319	     25.32179679	     -5.34867668	     -5.79244876	    -52.83060073	     18.68971442	      2.49563937	      1.97278625	      7.40748481	      4.43498264
      3.86000000	     -3.33991196	     -9.64153654	     50.87980199	      0.86872084	      0.97772552	      0.29162388	     25.73197193	      7.31278626	     -0.58075883	    -26.44581427	     14.01519626	     -6.18405391	     25.33054425	     -5.37239945	     -5.72163204	    -51.67396921	     19.35404058	      1.87716604	      1.96924945	      7.38592437	      4.38905905
      3.87000000	     -3.29263459	     -9.61061297	     51.11141339	      0.87131137	      0.97783043	      0.28908824	     25.48179338	      7.32962445	     -0.64418951	    -26.51776138	     14.22979615	     -6.39206175	     25.33716508	     -5.38130915	     -5.64317656	    -50.52130389	     19.98413749	      1.25972784	      1.97741382	      7.35170480	      4.35456474
      3.88000000	     -3.25773997	     -9.58219034	     51.32914003	      0.87381609	      0.97789805	      0.28660219	     25.25164373	      7.34034017	     -0.69853594	    -26.59739995	     14.44521254	     -6.58722468	     25.33860615	     -5.37397857	     -5.55543372	    -49.37616582	     20.57030026	      0.64279346	      1.99491610	      7.31127513	      4.33029111
      3.89000000	     -3.23388438	     -9.55456117	     51.53775370	      0.87622599	      0.97793765	      0.28417095	     25.03961873	      7.34219847	     -0.75418267	    -26.68295644	     14.67671368	     -6.76156137	     25.33431391	     -5.33997550	     -5.43553757	    -48.24092132	     21.10925271	      0.09129858	      2.01561298	      7.25905569	      4.31562715
      3.90000000	     -3.21638932	     -9.52655077	     51.73607529	      0.87854887	      0.97796746	      0.28176824	     24.83663188	      7.33760374	     -0.80590332	    -26.76899696	     14.90107164	     -6.92563869	     25.31812087	     -5.28710315	     -5.30062390	    -47.11600902	     21.59963549	     -0.40794623	      2.04132943	      7.20556897	      4.30402017
      3.91000000	     -3.20563651	     -9.49902255	     51.91747128	      0.88079736	      0.97799790	      0.27940715	     24.63997868	      7.32865918	     -0.85524041	    -26.84801519	     15.11138479	     -7.08478057	     25.28813060	     -5.21730572	     -5.15119116	    -45.99907075	     22.05281136	     -0.84878242	      2.06928561	      7.14774102	      4.29425440
      3.92000000	     -3.21240425	     -9.46471566	     52.09805979	      0.88291263	      0.97802903	      0.27707506	     24.45709669	      7.29458771	     -0.90491619	    -26.93214342	     15.33892614	     -7.21872960	     25.25038077	     -5.09747080	     -4.94988626	    -44.89437504	     22.44662096	     -1.13279800	      2.10019090	      7.07272350	      4.29529223
      3.93000000	     -3.23410328	     -9.44171916	     52.25906332	      0.88495221	      0.97803352	      0.27479591	     24.30166032	      7.25162359	     -0.97775461	    -27.02046293	     15.55895476	     -7.32442725	     25.21763267	     -4.96968064	     -4.75723155	    -43.81052265	     22.83695365	     -1.28290532	      2.15058244	      6.99509542	      4.30087401
      3.94000000	     -3.26471121	     -9.40739138	     52.40798263	      0.88689404	      0.97807539	      0.27255094	     24.13589197	      7.19731764	     -1.01838741	    -27.08949693	     15.75358200	     -7.43289309	     25.16055503	     -4.80951247	     -4.54186696	    -42.73589189	     23.18009553	     -1.38918030	      2.19400007	      6.90679250	      4.31348053
      3.95000000	     -3.29670851	     -9.35614045	     52.54162339	      0.88875402	      0.97816875	      0.27034392	     23.94909413	      7.13505526	     -1.03260596	    -27.13776845	     15.93067472	     -7.55737760	     25.07016444	     -4.62853722	     -4.32290259	    -41.67554014	     23.47280682	     -1.44525027	      2.21998841	      6.81055530	      4.34091270
      3.96000000	     -3.34644244	     -9.32957504	     52.65484922	      0.89054669	      0.97822117	      0.26818746	     23.79728397	      7.06863501	     -1.07785760	    -27.18118223	     16.10073534	     -7.64320440	     25.00207247	     -4.45533544	     -4.13516354	    -40.64870359	     23.78229407	     -1.39960684	      2.28071505	      6.71892408	      4.37725890
      3.97000000	     -3.39770973	     -9.29027622	     52.74890156	      0.89227224	      0.97831845	      0.26607266	     23.62854969	      6.99768387	     -1.09747600	    -27.20522051	     16.25826962	     -7.72809168	     24.90512683	     -4.27390446	     -3.96804915	    -39.64094472	     24.04984263	     -1.29242040	      2.32737479	      6.62176062	      4.42856623
      3.98000000	     -3.45285110	     -9.25867725	     52.82344194	      0.89395176	      0.97841482	      0.26400838	     23.46477869	      6.93110856	     -1.11308389	    -27.21340261	     16.40161575	     -7.79493674	     24.80413870	     -4.10367199	     -3.83719705	    -38.66422523	     24.31203929	     -1.14778590	      2.38423599	      6.52875020	      4.48958614
      3.99000000	     -3.50807454	     -9.26676359	     52.88124614	      0.89556041	      0.97846926	      0.26202523	     23.32954919	      6.89878972	     -1.08594643	    -27.19873760	     16.50670178	     -7.83280419	     24.73129428	     -3.95785075	     -3.70260235	    -37.72431884	     24.56738207	     -1.02123387	      2.47314838	      6.46933241	      4.54442222
      4.00000000	     -3.56676338	     -9.19672700	     52.91312884	      0.89714708	      0.97865096	      0.26000459	     23.12638162	      6.80367809	     -1.10856508	    -27.17990657	     16.66759338	     -7.88679626	     24.55375799	     -3.78030141	     -3.67451829	    -36.77719338	     24.71558180	     -0.78353927	      2.49702757	      6.35432684	      4.64752272
      4.01000000	     -3.59882464	     -9.17007131	     52.93197748	      0.89868309	      0.97879962	      0.25807169	     22.93083025	      6.77246095	     -1.07174976	    -27.12416303	     16.77212542	     -7.91663086	     24.39558447	     -3.65057665	     -3.62650371	    -35.87698077	     24.84624762	     -0.53110968	      2.53600311	      6.29858359	      4.73271144
      4.02000000	     -3.67032129	     -9.18480809	     52.95242488	      0.90007548	      0.97882642	      0.25619571	     22.82062485	      6.72104762	     -1.06663685	    -27.09972988	     16.87636034	     -7.92942855	     24.29629624	     -3.49678886	     -3.55236411	    -35.01376551	     24.92424830	     -0.39998965	      2.63961317	      6.24178694	      4.79367591
      4.03000000	     -3.72878121	     -9.17788821	     52.95381017	      0.90144404	      0.97889640	      0.25435017	     22.67530050	      6.66540210	     -1.07453745	    -27.05335773	     16.99956551	     -7.93543971	     24.15198105	     -3.34941198	     -3.51559440	    -34.17825406	     24.85973585	     -0.21003982	      2.71032399	      6.18004378	      4.87967900
      4.04000000	     -3.78223197	     -9.20293573	     52.96387473	      0.90270187	      0.97890072	      0.25255489	     22.55925947	      6.62927702	     -1.08075398	    -27.00412155	     17.09718886	     -7.93664388	     24.03655017	     -3.20973733	     -3.43259658	    -33.40282957	     24.70471589	     -0.06383698	      2.80555185	      6.15088118	      4.93804307
      4.05000000	     -3.82548166	     -9.26156232	     52.97549073	      0.90387612	      0.97883953	      0.25082899	     22.46975886	      6.62368216	     -1.07162843	    -26.95143112	     17.17980489	     -7.93854633	     23.94853926	     -3.08927340	     -3.30009922	    -32.69944371	     24.43070270	      0.01879917	      2.92016498	      6.15629902	      4.97748326
